<svg width="24" height="21" viewBox="-12 -12 24 24" fill="none" xmlns="http://www.w3.org/2000/svg">
<path style="stroke: #FFA858; stroke-width: 1; stroke-dasharray: none; stroke-linecap: butt; stroke-dashoffset: 0; stroke-linejoin: miter; stroke-miterlimit: 4;  fill-rule: nonzero; opacity: 1;" vector-effect="non-scaling-stroke"  transform=" translate(-11.87, -10.38)" d="M 10.9264 0.781664 C 11.234 -0.122033 12.5121 -0.122035 12.8197 0.781662 L 14.7879 6.5641 C 14.9259 6.96936 15.3065 7.24187 15.7346 7.24187 L 22.0014 7.24187 C 22.9814 7.24187 23.3765 8.50512 22.5713 9.06359 L 17.5825 12.5235 C 17.2157 12.7779 17.0619 13.2448 17.2058 13.6674 L 19.13 19.3205 C 19.4408 20.2337 18.4061 21.0142 17.6134 20.4644 L 12.4429 16.8785 C 12.1002 16.6408 11.6459 16.6408 11.3031 16.8785 L 6.13263 20.4644 C 5.33996 21.0142 4.30524 20.2337 4.61607 19.3205 L 6.54027 13.6674 C 6.68414 13.2448 6.53039 12.7779 6.1635 12.5235 L 1.17474 9.06359 C 0.369504 8.50512 0.764692 7.24187 1.74463 7.24187 L 8.01146 7.24187 C 8.43956 7.24187 8.82017 6.96936 8.95812 6.5641 L 10.9264 0.781664 Z" stroke-linecap="round" />
        <defs>
          <linearGradient id="Gradient1">
            <stop offset="0%" stopColor="transparent" />
            <stop offset="100%" stopColor="transparent" />
          </linearGradient>
          <linearGradient id="Gradient2" >
            <stop offset="0%" stopColor="#FFA858" />
            <stop offset="50%" stopColor="#FFA858"  />
            <stop offset="50%" stopColor="transparent" />
            <stop offset="100%" stopColor="transparent" />
          </linearGradient>
          <linearGradient id="Gradient3" >
            <stop offset="0%" stopColor="#FFA858" />
            <stop offset="100%" stopColor="#FFA858"  />
          </linearGradient>
        </defs>
</svg>
